<mxfile host="app.diagrams.net" agent="Mozilla/5.0 (Windows NT 10.0; Win64; x64) AppleWebKit/537.36 (KHTML, like Gecko) Chrome/134.0.0.0 Safari/537.36 Edg/134.0.0.0" version="26.0.15">
  <diagram name="Page-1" id="qsjaHbLbPRIbIvOkds3Z">
    <mxGraphModel dx="1491" dy="1995" grid="1" gridSize="10" guides="1" tooltips="1" connect="1" arrows="1" fold="1" page="1" pageScale="1" pageWidth="850" pageHeight="1100" math="0" shadow="0">
      <root>
        <mxCell id="0" />
        <mxCell id="1" parent="0" />
        <mxCell id="RH89xZo34Ap5GHKMdI0g-27" style="rounded=0;orthogonalLoop=1;jettySize=auto;html=1;exitX=0.5;exitY=0;exitDx=0;exitDy=0;exitPerimeter=0;entryX=0.5;entryY=1;entryDx=0;entryDy=0;" edge="1" parent="1" source="Q5ZKdDUHBjKaG26kKV8o-2" target="RH89xZo34Ap5GHKMdI0g-2">
          <mxGeometry relative="1" as="geometry" />
        </mxCell>
        <mxCell id="Q5ZKdDUHBjKaG26kKV8o-2" value="Project Manager" style="strokeWidth=2;html=1;shape=mxgraph.flowchart.decision;whiteSpace=wrap;fillColor=#ffff88;strokeColor=#36393d;" parent="1" vertex="1">
          <mxGeometry x="169.37" y="363" width="101.25" height="90" as="geometry" />
        </mxCell>
        <mxCell id="RH89xZo34Ap5GHKMdI0g-20" style="edgeStyle=orthogonalEdgeStyle;rounded=0;orthogonalLoop=1;jettySize=auto;html=1;exitX=0.5;exitY=0.5;exitDx=0;exitDy=28.125;exitPerimeter=0;curved=1;" edge="1" parent="1" source="RH89xZo34Ap5GHKMdI0g-1" target="RH89xZo34Ap5GHKMdI0g-16">
          <mxGeometry relative="1" as="geometry" />
        </mxCell>
        <mxCell id="RH89xZo34Ap5GHKMdI0g-1" value="NEW TEAMS REQUEST" style="html=1;dashed=0;whiteSpace=wrap;shape=mxgraph.dfd.start;fillColor=#008a00;fontColor=#ffffff;strokeColor=#005700;" vertex="1" parent="1">
          <mxGeometry x="520" y="-120" width="150" height="56.25" as="geometry" />
        </mxCell>
        <mxCell id="RH89xZo34Ap5GHKMdI0g-2" value="PROJECT" style="rounded=0;whiteSpace=wrap;html=1;fillColor=#e51400;fontColor=#ffffff;strokeColor=#B20000;" vertex="1" parent="1">
          <mxGeometry x="119.99" y="160" width="200" height="40" as="geometry" />
        </mxCell>
        <mxCell id="RH89xZo34Ap5GHKMdI0g-9" value="PRJ-XXX-TEAMS PHONE" style="shape=image;html=1;verticalAlign=top;verticalLabelPosition=bottom;labelBackgroundColor=#ffffff;imageAspect=0;aspect=fixed;image=https://cdn0.iconfinder.com/data/icons/logos-microsoft-office-365/128/Microsoft_Office-10-128.png" vertex="1" parent="1">
          <mxGeometry x="175" y="580" width="90" height="90" as="geometry" />
        </mxCell>
        <mxCell id="RH89xZo34Ap5GHKMdI0g-14" value="UNIT" style="rounded=0;whiteSpace=wrap;html=1;fillColor=#e51400;fontColor=#ffffff;strokeColor=#B20000;" vertex="1" parent="1">
          <mxGeometry x="360" y="160" width="200" height="40" as="geometry" />
        </mxCell>
        <mxCell id="RH89xZo34Ap5GHKMdI0g-29" style="rounded=0;orthogonalLoop=1;jettySize=auto;html=1;exitX=0.5;exitY=1;exitDx=0;exitDy=0;" edge="1" parent="1" source="RH89xZo34Ap5GHKMdI0g-15">
          <mxGeometry relative="1" as="geometry">
            <mxPoint x="701.3076923076924" y="360" as="targetPoint" />
          </mxGeometry>
        </mxCell>
        <mxCell id="RH89xZo34Ap5GHKMdI0g-15" value="DEPARTEMENT" style="rounded=0;whiteSpace=wrap;html=1;fillColor=#e51400;fontColor=#ffffff;strokeColor=#B20000;" vertex="1" parent="1">
          <mxGeometry x="601" y="160" width="200" height="40" as="geometry" />
        </mxCell>
        <mxCell id="RH89xZo34Ap5GHKMdI0g-16" value="ORG-WIDE" style="rounded=0;whiteSpace=wrap;html=1;fillColor=#e51400;fontColor=#ffffff;strokeColor=#B20000;" vertex="1" parent="1">
          <mxGeometry x="850" y="160" width="200" height="40" as="geometry" />
        </mxCell>
        <mxCell id="RH89xZo34Ap5GHKMdI0g-17" value="Head of Unit" style="strokeWidth=2;html=1;shape=mxgraph.flowchart.decision;whiteSpace=wrap;fillColor=#ffff88;strokeColor=#36393d;" vertex="1" parent="1">
          <mxGeometry x="409.38" y="363" width="101.25" height="90" as="geometry" />
        </mxCell>
        <mxCell id="RH89xZo34Ap5GHKMdI0g-18" value="Head of Departement" style="strokeWidth=2;html=1;shape=mxgraph.flowchart.decision;whiteSpace=wrap;fillColor=#ffff88;strokeColor=#36393d;" vertex="1" parent="1">
          <mxGeometry x="650.37" y="363" width="101.25" height="90" as="geometry" />
        </mxCell>
        <mxCell id="RH89xZo34Ap5GHKMdI0g-19" value="Head of departement" style="strokeWidth=2;html=1;shape=mxgraph.flowchart.decision;whiteSpace=wrap;fillColor=#ffff88;strokeColor=#36393d;" vertex="1" parent="1">
          <mxGeometry x="899.38" y="363" width="101.25" height="90" as="geometry" />
        </mxCell>
        <mxCell id="RH89xZo34Ap5GHKMdI0g-21" style="edgeStyle=orthogonalEdgeStyle;rounded=0;orthogonalLoop=1;jettySize=auto;html=1;exitX=0.5;exitY=0;exitDx=0;exitDy=0;entryX=0.5;entryY=0.5;entryDx=0;entryDy=28.125;entryPerimeter=0;curved=1;" edge="1" parent="1" source="RH89xZo34Ap5GHKMdI0g-15" target="RH89xZo34Ap5GHKMdI0g-1">
          <mxGeometry relative="1" as="geometry" />
        </mxCell>
        <mxCell id="RH89xZo34Ap5GHKMdI0g-22" style="edgeStyle=orthogonalEdgeStyle;rounded=0;orthogonalLoop=1;jettySize=auto;html=1;exitX=0.5;exitY=0;exitDx=0;exitDy=0;entryX=0.5;entryY=0.5;entryDx=0;entryDy=28.125;entryPerimeter=0;curved=1;" edge="1" parent="1" source="RH89xZo34Ap5GHKMdI0g-14" target="RH89xZo34Ap5GHKMdI0g-1">
          <mxGeometry relative="1" as="geometry" />
        </mxCell>
        <mxCell id="RH89xZo34Ap5GHKMdI0g-24" value="UNIT-Infrastructure &amp;amp; Supervision" style="shape=image;html=1;verticalAlign=top;verticalLabelPosition=bottom;labelBackgroundColor=#ffffff;imageAspect=0;aspect=fixed;image=https://cdn0.iconfinder.com/data/icons/logos-microsoft-office-365/128/Microsoft_Office-10-128.png" vertex="1" parent="1">
          <mxGeometry x="415" y="580" width="90" height="90" as="geometry" />
        </mxCell>
        <mxCell id="RH89xZo34Ap5GHKMdI0g-25" value="DEPT-DBS" style="shape=image;html=1;verticalAlign=top;verticalLabelPosition=bottom;labelBackgroundColor=#ffffff;imageAspect=0;aspect=fixed;image=https://cdn0.iconfinder.com/data/icons/logos-microsoft-office-365/128/Microsoft_Office-10-128.png" vertex="1" parent="1">
          <mxGeometry x="656" y="580" width="90" height="90" as="geometry" />
        </mxCell>
        <mxCell id="RH89xZo34Ap5GHKMdI0g-26" value="ORG-Data Governance" style="shape=image;html=1;verticalAlign=top;verticalLabelPosition=bottom;labelBackgroundColor=#ffffff;imageAspect=0;aspect=fixed;image=https://cdn0.iconfinder.com/data/icons/logos-microsoft-office-365/128/Microsoft_Office-10-128.png" vertex="1" parent="1">
          <mxGeometry x="906" y="580" width="90" height="90" as="geometry" />
        </mxCell>
        <mxCell id="RH89xZo34Ap5GHKMdI0g-28" style="rounded=0;orthogonalLoop=1;jettySize=auto;html=1;exitX=0.5;exitY=1;exitDx=0;exitDy=0;entryX=0.5;entryY=0;entryDx=0;entryDy=0;entryPerimeter=0;" edge="1" parent="1" source="RH89xZo34Ap5GHKMdI0g-14" target="RH89xZo34Ap5GHKMdI0g-17">
          <mxGeometry relative="1" as="geometry" />
        </mxCell>
        <mxCell id="RH89xZo34Ap5GHKMdI0g-30" style="rounded=0;orthogonalLoop=1;jettySize=auto;html=1;exitX=0.5;exitY=1;exitDx=0;exitDy=0;entryX=0.5;entryY=0;entryDx=0;entryDy=0;entryPerimeter=0;" edge="1" parent="1" source="RH89xZo34Ap5GHKMdI0g-16" target="RH89xZo34Ap5GHKMdI0g-19">
          <mxGeometry relative="1" as="geometry" />
        </mxCell>
        <mxCell id="RH89xZo34Ap5GHKMdI0g-31" style="rounded=0;orthogonalLoop=1;jettySize=auto;html=1;exitX=0.5;exitY=0;exitDx=0;exitDy=0;entryX=0.5;entryY=1;entryDx=0;entryDy=0;entryPerimeter=0;" edge="1" parent="1" source="RH89xZo34Ap5GHKMdI0g-26" target="RH89xZo34Ap5GHKMdI0g-19">
          <mxGeometry relative="1" as="geometry" />
        </mxCell>
        <mxCell id="RH89xZo34Ap5GHKMdI0g-32" style="rounded=0;orthogonalLoop=1;jettySize=auto;html=1;exitX=0.5;exitY=0;exitDx=0;exitDy=0;entryX=0.5;entryY=1;entryDx=0;entryDy=0;entryPerimeter=0;" edge="1" parent="1" source="RH89xZo34Ap5GHKMdI0g-25" target="RH89xZo34Ap5GHKMdI0g-18">
          <mxGeometry relative="1" as="geometry" />
        </mxCell>
        <mxCell id="RH89xZo34Ap5GHKMdI0g-33" style="rounded=0;orthogonalLoop=1;jettySize=auto;html=1;exitX=0.5;exitY=0;exitDx=0;exitDy=0;entryX=0.5;entryY=1;entryDx=0;entryDy=0;entryPerimeter=0;" edge="1" parent="1" source="RH89xZo34Ap5GHKMdI0g-24" target="RH89xZo34Ap5GHKMdI0g-17">
          <mxGeometry relative="1" as="geometry" />
        </mxCell>
        <mxCell id="RH89xZo34Ap5GHKMdI0g-34" style="rounded=0;orthogonalLoop=1;jettySize=auto;html=1;exitX=0.5;exitY=0;exitDx=0;exitDy=0;entryX=0.5;entryY=1;entryDx=0;entryDy=0;entryPerimeter=0;" edge="1" parent="1" source="RH89xZo34Ap5GHKMdI0g-9" target="Q5ZKdDUHBjKaG26kKV8o-2">
          <mxGeometry relative="1" as="geometry" />
        </mxCell>
        <mxCell id="RH89xZo34Ap5GHKMdI0g-35" style="edgeStyle=orthogonalEdgeStyle;curved=1;rounded=0;orthogonalLoop=1;jettySize=auto;html=1;exitX=0.5;exitY=0;exitDx=0;exitDy=0;entryX=0.5;entryY=0.5;entryDx=0;entryDy=28.125;entryPerimeter=0;" edge="1" parent="1" source="RH89xZo34Ap5GHKMdI0g-2" target="RH89xZo34Ap5GHKMdI0g-1">
          <mxGeometry relative="1" as="geometry" />
        </mxCell>
      </root>
    </mxGraphModel>
  </diagram>
</mxfile>
